<?xml version="1.0" standalone="no"?>
<!DOCTYPE svg PUBLIC "-//W3C//DTD SVG 20010904//EN"
 "http://www.w3.org/TR/2001/REC-SVG-20010904/DTD/svg10.dtd">
<svg version="1.0" xmlns="http://www.w3.org/2000/svg"
 width="1280.000000pt" height="639.000000pt" viewBox="0 0 1280.000000 639.000000"
 preserveAspectRatio="xMidYMid meet">

<g transform="translate(0.000000,639.000000) scale(0.100000,-0.100000)"
fill="#000000" stroke="none">
<path d="M4409 6367 c-18 -12 -40 -34 -48 -49 -14 -24 -14 -28 3 -47 23 -25
47 -26 89 -4 40 20 56 41 57 74 0 52 -45 64 -101 26z"/>
<path d="M5172 6365 c-16 -35 -15 -46 3 -39 26 10 65 -6 77 -31 24 -54 66 -7
54 59 l-7 36 -58 0 c-52 0 -59 -2 -69 -25z"/>
<path d="M5493 6371 c-24 -9 -58 -32 -78 -51 -60 -58 -40 -95 38 -69 23 8 53
14 67 14 19 0 26 7 33 35 22 89 12 100 -60 71z"/>
<path d="M10813 6370 c-18 -10 -39 -33 -48 -50 -15 -30 -15 -33 1 -51 25 -28
64 -23 107 12 79 65 27 143 -60 89z"/>
<path d="M11576 6374 c-12 -30 -6 -44 18 -44 23 0 76 -44 76 -63 0 -6 9 -2 20
8 12 11 20 31 20 51 0 58 -7 64 -70 64 -44 0 -59 -4 -64 -16z"/>
<path d="M11916 6381 c-3 -4 -18 -11 -34 -14 -16 -3 -45 -23 -65 -44 -63 -64
-42 -99 42 -70 25 9 55 15 65 14 15 -1 21 6 26 28 4 17 12 40 18 52 7 12 12
26 12 32 0 13 -56 15 -64 2z"/>
<path d="M442 6319 c-14 -5 -20 -13 -16 -20 4 -7 3 -9 -4 -5 -6 3 -13 2 -16
-3 -10 -15 11 -23 59 -23 58 0 82 9 88 31 3 14 -2 21 -17 25 -30 8 -67 6 -94
-5z"/>
<path d="M3220 6320 c0 -5 6 -10 14 -10 28 0 68 -46 77 -86 8 -38 8 -37 5 11
-3 38 -10 54 -31 72 -27 23 -65 31 -65 13z"/>
<path d="M6817 6301 c-18 -16 -45 -33 -59 -36 -39 -10 -70 -49 -80 -102 -5
-27 -11 -60 -15 -75 -4 -23 -1 -30 20 -39 33 -15 68 5 87 51 10 25 10 35 0 55
-11 20 -10 30 4 58 9 19 16 40 16 47 0 9 14 10 50 5 61 -8 120 9 120 35 0 22
-19 30 -70 30 -29 0 -48 -8 -73 -29z"/>
<path d="M9630 6321 c0 -5 8 -12 19 -16 29 -9 54 -42 61 -83 l8 -37 1 42 c1
31 -5 49 -25 72 -24 29 -64 42 -64 22z"/>
<path d="M2277 6300 c-13 -11 -28 -32 -32 -47 -3 -16 -16 -38 -28 -51 -45 -49
-19 -152 39 -152 32 0 64 45 64 90 0 31 6 42 35 64 39 30 44 58 19 94 -19 28
-63 29 -97 2z"/>
<path d="M8700 6313 c-25 -9 -50 -35 -50 -52 0 -9 -14 -36 -30 -60 -25 -37
-29 -51 -24 -80 9 -47 30 -71 65 -71 34 0 59 40 59 93 0 28 7 40 35 61 69 53
26 139 -55 109z"/>
<path d="M5895 6300 c-10 -16 42 -79 69 -86 45 -11 71 -1 71 26 0 23 -3 25
-37 22 -42 -4 -78 12 -78 33 0 17 -16 20 -25 5z"/>
<path d="M12290 6296 c0 -22 37 -62 69 -75 45 -19 76 -11 76 19 0 23 -3 25
-37 22 -42 -4 -78 12 -78 33 0 8 -7 15 -15 15 -8 0 -15 -6 -15 -14z"/>
<path d="M2822 6274 c-27 -19 -28 -47 -2 -89 23 -37 63 -58 94 -49 49 15 50
72 2 120 -37 37 -60 42 -94 18z"/>
<path d="M6146 6277 c-24 -18 -25 -87 -2 -122 31 -47 110 -42 118 7 13 85 -59
156 -116 115z"/>
<path d="M9223 6278 c-64 -31 27 -166 95 -141 45 17 44 73 -2 119 -35 35 -56
40 -93 22z"/>
<path d="M12546 6275 c-27 -20 -27 -86 0 -122 26 -34 73 -42 99 -17 25 26 16
111 -15 136 -26 21 -58 23 -84 3z"/>
<path d="M333 6250 c-17 -10 -36 -27 -41 -37 -14 -27 -37 -152 -29 -159 4 -4
21 -7 39 -6 58 2 95 65 66 111 -9 15 -9 25 0 46 13 29 16 65 5 65 -5 0 -22 -9
-40 -20z"/>
<path d="M1063 6264 c-17 -8 34 -54 60 -54 38 0 51 14 32 34 -9 9 -25 16 -35
16 -10 0 -24 2 -32 4 -7 3 -18 2 -25 0z"/>
<path d="M7463 6263 c-6 -2 -1 -14 13 -29 25 -24 53 -29 87 -15 17 6 18 8 3
20 -18 15 -84 30 -103 24z"/>
<path d="M3506 6224 c-9 -8 -19 -27 -22 -42 -11 -53 -13 -54 -47 -49 -57 8
-106 -33 -107 -90 0 -39 39 -74 73 -66 28 7 67 42 78 71 7 17 14 21 33 16 30
-7 62 31 71 87 6 34 3 44 -16 65 -26 28 -42 30 -63 8z"/>
<path d="M9905 6220 c-9 -10 -20 -34 -24 -52 -6 -31 -10 -33 -48 -33 -58 0
-103 -43 -103 -97 0 -31 5 -40 29 -53 17 -8 38 -12 48 -8 27 9 64 45 74 71 6
16 17 22 39 22 55 0 89 94 50 143 -25 32 -41 34 -65 7z"/>
<path d="M4365 6185 c-33 -32 -31 -42 10 -62 31 -15 40 -15 73 -4 42 15 52 26
52 57 0 43 -96 49 -135 9z"/>
<path d="M10766 6194 c-16 -15 -20 -27 -17 -50 1 -6 -12 -14 -27 -17 -38 -8
-60 -56 -44 -92 12 -27 40 -33 60 -13 7 7 12 32 12 56 l0 44 37 -7 c69 -13
147 47 110 84 -17 17 -113 13 -131 -5z"/>
<path d="M1724 6185 c-4 -8 -4 -30 -2 -47 4 -25 0 -36 -18 -51 -31 -24 -40
-76 -20 -115 24 -47 66 -55 109 -22 l25 20 35 -20 c33 -20 37 -20 76 -4 40 16
71 54 71 88 0 8 -24 35 -52 60 -38 33 -61 46 -83 46 -22 0 -40 9 -60 30 -31
32 -72 40 -81 15z m126 -124 c0 -5 -7 -14 -15 -21 -12 -10 -15 -10 -15 2 0 8
3 18 7 21 9 10 23 9 23 -2z"/>
<path d="M8123 6185 c-3 -9 -3 -30 1 -47 5 -24 2 -34 -13 -45 -11 -7 -25 -29
-31 -48 -27 -81 59 -150 118 -95 21 20 21 20 57 -1 35 -21 37 -21 75 -4 42 19
70 52 70 83 0 19 -60 82 -97 101 -12 6 -31 11 -42 11 -11 0 -35 14 -53 30 -35
32 -75 39 -85 15z m127 -124 c0 -5 -7 -14 -15 -21 -12 -10 -15 -10 -15 2 0 8
3 18 7 21 9 10 23 9 23 -2z"/>
<path d="M12070 6115 c0 -22 4 -25 35 -25 19 0 35 5 35 11 0 5 -5 7 -10 4 -17
-11 -49 5 -43 21 3 7 0 14 -6 14 -6 0 -11 -11 -11 -25z"/>
<path d="M4308 6123 c-25 -7 -43 -59 -30 -88 15 -32 49 -33 63 -1 12 25 4 97
-9 95 -4 -1 -14 -3 -24 -6z"/>
<path d="M5670 6105 c0 -10 9 -15 28 -14 15 0 21 3 14 6 -6 2 -10 9 -6 14 3 5
-4 9 -15 9 -12 0 -21 -7 -21 -15z"/>
<path d="M1540 6082 c0 -4 -16 -14 -36 -21 -34 -12 -36 -15 -31 -48 3 -19 11
-41 18 -49 17 -20 57 -17 69 5 11 22 13 80 4 105 -6 16 -24 22 -24 8z"/>
<path d="M5327 6083 c-3 -5 -7 -33 -8 -63 l-4 -55 33 -3 c52 -5 82 20 82 68 0
34 -4 42 -26 50 -30 12 -71 13 -77 3z"/>
<path d="M7940 6081 c0 -5 -16 -15 -36 -21 -33 -11 -36 -15 -30 -43 12 -60 64
-88 86 -48 11 22 13 80 4 105 -7 17 -24 22 -24 7z"/>
<path d="M11727 6084 c-3 -5 -7 -34 -8 -64 l-4 -55 41 -3 c35 -3 45 1 63 25
22 27 22 65 2 86 -12 12 -88 21 -94 11z"/>
<path d="M2056 6055 c-15 -14 -26 -35 -26 -50 0 -49 42 -105 79 -105 26 0 51
41 51 84 0 37 -5 48 -31 70 -38 32 -40 32 -73 1z"/>
<path d="M8450 6048 c-24 -26 -25 -54 -4 -97 31 -62 85 -64 110 -4 35 84 -48
163 -106 101z"/>
<path d="M4097 6023 c-24 -23 16 -94 65 -114 37 -15 68 8 60 47 -8 45 -99 94
-125 67z"/>
<path d="M10497 6023 c-16 -15 -5 -56 23 -83 40 -39 79 -49 97 -25 20 28 16
44 -21 81 -32 32 -81 46 -99 27z"/>
<path d="M3249 5994 c-13 -36 -3 -97 21 -126 44 -54 79 40 43 112 -23 45 -49
51 -64 14z"/>
<path d="M9656 6012 c-3 -5 -8 -26 -11 -48 -10 -67 49 -146 76 -102 25 39 -7
158 -42 158 -10 0 -20 -4 -23 -8z"/>
<path d="M3696 5919 c-21 -16 -26 -29 -26 -63 0 -49 26 -80 75 -90 29 -6 30
-9 26 -48 -3 -39 -2 -41 13 -26 26 27 81 41 106 28 28 -15 32 -10 41 47 10 65
-5 77 -40 34 -24 -30 -30 -32 -49 -22 -18 10 -22 21 -22 62 0 41 -5 54 -26 74
-33 30 -63 32 -98 4z"/>
<path d="M10120 5933 c-35 -13 -50 -37 -50 -78 0 -48 26 -79 76 -89 28 -6 31
-10 30 -43 -1 -42 15 -53 29 -21 11 24 45 31 78 15 26 -12 44 7 52 55 10 58
-8 72 -43 31 -21 -24 -32 -29 -47 -23 -11 4 -23 6 -27 4 -4 -3 -3 10 2 27 22
76 -35 146 -100 122z"/>
<path d="M1606 5907 c-57 -57 -16 -146 54 -117 36 15 50 37 50 77 0 39 -11 52
-47 59 -26 5 -37 1 -57 -19z"/>
<path d="M8020 5917 c-48 -24 -53 -103 -7 -124 17 -8 31 -7 54 2 53 22 64 107
17 126 -32 11 -34 11 -64 -4z"/>
<path d="M12361 5916 l-22 -12 27 -13 c16 -7 51 -15 79 -18 45 -6 49 -5 37 10
-7 8 -32 22 -56 30 -34 12 -47 12 -65 3z"/>
<path d="M5952 5912 c-18 -12 29 -32 90 -39 40 -5 48 -3 43 9 -10 26 -105 47
-133 30z"/>
<path d="M4310 5884 c-59 -27 -79 -48 -80 -81 0 -31 21 -73 37 -73 7 0 13 -5
13 -11 0 -24 83 -2 110 28 14 16 33 32 42 36 25 9 51 53 44 75 -7 21 -37 38
-82 46 -20 3 -48 -3 -84 -20z"/>
<path d="M10750 5903 c-115 -39 -148 -98 -91 -162 26 -30 34 -33 65 -27 19 4
45 18 58 32 13 14 33 29 45 34 12 5 29 20 38 33 13 20 14 29 4 51 -7 15 -23
29 -36 31 -54 11 -69 13 -83 8z"/>
<path d="M6301 5880 c-23 -11 -47 -18 -51 -15 -26 16 -60 -36 -60 -91 0 -26 4
-29 46 -38 26 -6 32 -3 41 17 8 17 23 27 47 31 46 9 96 51 96 81 0 40 -50 46
-119 15z"/>
<path d="M12695 5878 c-11 -7 -33 -12 -50 -13 -35 0 -55 -31 -55 -87 0 -34 3
-38 24 -38 13 0 31 -3 39 -6 9 -3 16 3 20 15 3 12 13 23 24 26 10 4 37 15 61
27 37 18 42 25 42 54 0 33 -1 34 -42 34 -24 0 -52 -6 -63 -12z"/>
<path d="M4675 5870 c-10 -16 6 -128 21 -147 12 -16 15 -16 24 -3 6 8 7 26 3
40 -3 14 -6 40 -5 59 3 45 -26 79 -43 51z"/>
<path d="M5766 5872 c-3 -6 3 -12 15 -15 12 -3 19 -1 16 6 -5 15 -24 20 -31 9z"/>
<path d="M11074 5814 c7 -73 21 -107 39 -101 15 5 13 117 -3 146 -6 12 -18 21
-27 21 -14 0 -15 -9 -9 -66z"/>
<path d="M12166 5872 c-3 -6 3 -12 15 -15 12 -3 19 -1 16 6 -5 15 -24 20 -31
9z"/>
<path d="M1201 5838 c-12 -12 -21 -27 -21 -32 0 -6 -3 -21 -6 -33 -6 -21 -6
-21 30 -5 29 14 35 22 36 49 0 41 -14 49 -39 21z"/>
<path d="M7607 5842 c-25 -28 -39 -74 -33 -112 3 -23 -1 -49 -14 -75 -24 -51
-12 -78 28 -69 41 11 69 32 82 64 17 42 10 64 -24 68 -25 3 -27 6 -21 30 13
50 17 112 8 112 -6 0 -17 -8 -26 -18z"/>
<path d="M11768 5853 c7 -3 16 -2 19 1 4 3 -2 6 -13 5 -11 0 -14 -3 -6 -6z"/>
<path d="M3117 5833 c-14 -14 -22 -15 -53 -5 -21 6 -41 9 -46 6 -37 -23 61
-124 122 -124 20 0 24 7 20 48 -1 13 4 29 10 37 8 10 8 19 0 34 -13 25 -30 27
-53 4z"/>
<path d="M9517 5833 c-15 -15 -21 -16 -53 -4 -74 27 -69 -33 8 -89 27 -20 52
-30 68 -28 22 3 25 7 22 35 -2 18 2 41 7 52 23 43 -17 69 -52 34z"/>
<path d="M12038 5843 c7 -3 16 -2 19 1 4 3 -2 6 -13 5 -11 0 -14 -3 -6 -6z"/>
<path d="M2581 5823 c-1 -17 16 -25 25 -12 4 7 3 9 -4 5 -5 -3 -13 0 -15 6 -4
9 -6 10 -6 1z"/>
<path d="M5126 5799 c-31 -37 -32 -49 -5 -83 31 -39 91 -37 130 5 31 33 36 58
19 90 -9 15 -22 19 -64 19 -48 0 -57 -3 -80 -31z"/>
<path d="M11526 5799 c-31 -37 -32 -43 -5 -80 30 -42 80 -40 125 5 36 36 41
55 24 87 -9 15 -22 19 -64 19 -48 0 -57 -3 -80 -31z"/>
<path d="M362 5797 c-29 -31 -28 -69 4 -101 31 -30 88 -35 120 -11 19 15 19
15 -1 27 -37 22 -65 57 -65 83 0 32 -28 34 -58 2z"/>
<path d="M5005 5788 c0 -31 -2 -33 -34 -31 l-34 1 42 -41 c34 -35 43 -39 51
-27 21 32 23 63 5 97 -23 42 -30 42 -30 1z"/>
<path d="M6765 5795 c-28 -27 -31 -46 -13 -78 18 -34 40 -46 84 -47 28 0 46 6
59 20 16 18 16 20 2 20 -25 0 -77 59 -77 86 0 31 -24 31 -55 -1z"/>
<path d="M11408 5789 c-2 -27 -8 -35 -26 -37 -13 -2 -34 3 -47 12 -22 15 -24
14 -30 -4 -3 -10 -1 -28 5 -40 7 -14 7 -20 0 -20 -6 0 -15 -12 -21 -27 -8 -22
-7 -30 6 -40 24 -17 47 -5 39 20 -6 18 -3 19 27 15 45 -7 57 -2 75 34 17 32
13 67 -11 101 -13 18 -14 17 -17 -14z"/>
<path d="M12210 5811 c0 -7 -12 -22 -26 -34 l-27 -21 27 -23 c15 -13 31 -23
36 -23 17 0 21 58 6 87 -8 15 -15 22 -16 14z"/>
<path d="M5790 5786 c-38 -37 -65 -41 -90 -14 l-22 23 4 -47 c2 -36 -1 -49
-14 -57 -22 -14 -23 -57 -2 -65 30 -11 91 -6 104 9 10 12 9 19 -2 37 -20 31
-12 48 22 48 37 0 53 22 45 60 -8 36 -13 37 -45 6z"/>
<path d="M2688 5783 c7 -3 16 -2 19 1 4 3 -2 6 -13 5 -11 0 -14 -3 -6 -6z"/>
<path d="M5881 5744 c-20 -26 -30 -111 -15 -127 12 -12 65 17 79 44 40 77 -14
147 -64 83z"/>
<path d="M12079 5758 c-1 -7 0 -21 1 -32 1 -10 -8 -27 -19 -37 -40 -37 -16
-69 53 -69 70 0 82 19 44 73 -23 34 -64 77 -73 77 -3 0 -6 -6 -6 -12z"/>
<path d="M12283 5748 c-27 -31 -34 -52 -27 -88 11 -51 63 -51 89 1 10 17 12
40 8 61 -10 52 -37 62 -70 26z"/>
<path d="M10545 5751 c-11 -4 -36 -14 -55 -25 -75 -40 -89 -69 -42 -87 15 -6
43 -20 63 -30 20 -11 49 -19 64 -19 36 0 85 30 91 56 6 23 -15 73 -38 91 -17
14 -58 20 -83 14z"/>
<path d="M4073 5717 c-40 -23 -53 -37 -53 -54 0 -17 6 -23 23 -23 12 0 40 -12
62 -25 47 -29 86 -32 126 -8 39 23 47 57 24 97 -25 42 -33 46 -85 45 -32 -1
-61 -10 -97 -32z"/>
<path d="M1191 5707 c-19 -23 -42 -89 -37 -103 12 -31 77 -5 107 42 16 26 18
37 9 54 -12 23 -61 28 -79 7z"/>
<path d="M4891 5674 c-14 -31 -7 -44 24 -44 20 0 23 5 22 28 -2 25 -13 41 -28
42 -3 0 -11 -12 -18 -26z"/>
<path d="M1700 5675 c0 -8 5 -15 10 -15 6 0 10 -9 10 -20 0 -11 -4 -20 -9 -20
-4 0 -20 -9 -35 -21 -35 -27 -19 -49 35 -49 25 0 41 -6 47 -17 21 -37 152 25
152 71 0 27 -27 41 -59 31 -11 -3 -26 1 -35 10 -18 18 -78 45 -101 45 -8 0
-15 -7 -15 -15z"/>
<path d="M2374 5675 c-18 -14 -18 -14 9 -15 17 0 27 5 27 15 0 19 -11 19 -36
0z"/>
<path d="M2535 5683 c-36 -5 -75 -39 -75 -65 0 -28 63 -52 109 -41 42 10 74
54 54 74 -10 10 -14 7 -22 -12 -12 -32 -34 -50 -49 -40 -10 6 -10 16 1 49 8
23 14 41 13 41 0 -1 -14 -4 -31 -6z"/>
<path d="M8108 5685 c-4 -4 -1 -19 5 -33 9 -19 9 -26 0 -29 -7 -3 -23 -13 -37
-24 -23 -18 -24 -22 -12 -35 8 -8 29 -14 47 -14 18 0 37 -7 44 -16 11 -16 16
-15 61 2 55 20 94 51 94 75 0 20 -26 32 -52 23 -12 -3 -31 4 -53 20 -35 27
-85 43 -97 31z"/>
<path d="M8774 5675 c-18 -14 -18 -14 9 -15 17 0 27 5 27 15 0 19 -11 19 -36
0z"/>
<path d="M10816 5674 c-20 -19 -20 -15 5 -70 20 -42 68 -81 83 -67 13 13 5 63
-15 98 -28 47 -53 60 -73 39z"/>
<path d="M4415 5660 c-17 -18 -16 -21 9 -64 37 -63 86 -75 86 -20 0 30 -45
104 -64 104 -7 0 -21 -9 -31 -20z"/>
<path d="M8892 5663 c-20 -17 -26 -33 -23 -60 0 -6 16 -16 35 -23 60 -19 126
10 126 57 0 30 -18 30 -30 -1 -12 -34 -48 -53 -56 -31 -4 9 -2 27 5 41 6 14
11 27 11 29 0 12 -50 3 -68 -12z"/>
<path d="M5445 5643 c-51 -13 -69 -24 -56 -33 25 -15 131 9 131 30 0 10 -39
12 -75 3z"/>
<path d="M11840 5643 c-8 -3 -26 -10 -39 -15 -18 -6 -21 -12 -13 -20 14 -14
115 6 132 28 11 12 6 14 -26 13 -22 0 -46 -3 -54 -6z"/>
<path d="M1080 5630 c0 -5 5 -10 11 -10 5 0 7 5 4 10 -3 6 -8 10 -11 10 -2 0
-4 -4 -4 -10z"/>
<path d="M2890 5630 c0 -5 -9 -19 -20 -30 -25 -25 -17 -44 25 -64 91 -44 138
21 59 83 -28 22 -64 28 -64 11z"/>
<path d="M9272 5609 c-27 -33 -21 -49 29 -75 55 -28 108 -9 94 35 -8 26 -62
71 -83 70 -9 0 -28 -13 -40 -30z"/>
<path d="M1100 5599 c-13 -9 -13 -10 1 -6 9 3 23 0 30 -6 11 -10 11 -9 0 6 -7
9 -14 17 -15 17 0 0 -8 -5 -16 -11z"/>
<path d="M6072 5603 c-23 -5 -52 -49 -52 -81 0 -23 28 -49 55 -52 56 -6 76 0
95 33 26 41 25 49 -5 81 -23 25 -41 29 -93 19z"/>
<path d="M12463 5600 c-26 -11 -43 -39 -43 -73 0 -74 132 -83 157 -11 24 68
-39 114 -114 84z"/>
<path d="M2135 5569 c11 -45 11 -79 1 -106 -6 -19 -4 -23 13 -23 23 0 51 35
51 66 0 25 -39 85 -59 92 -11 4 -12 -2 -6 -29z"/>
<path d="M8530 5590 c0 -5 5 -30 12 -54 9 -34 9 -51 0 -70 -10 -23 -9 -26 10
-26 58 0 64 105 9 147 -20 15 -31 16 -31 3z"/>
<path d="M12119 5560 c-48 -14 -89 -52 -89 -81 0 -28 15 -39 56 -39 19 0 24 5
24 25 0 30 40 75 67 75 17 1 17 2 -1 15 -22 17 -20 16 -57 5z"/>
<path d="M2340 5530 c-20 -49 11 -130 50 -130 15 0 20 7 21 28 3 58 -14 108
-41 122 -14 8 -20 4 -30 -20z"/>
<path d="M5700 5552 c-47 -22 -70 -46 -70 -72 0 -29 15 -40 53 -40 17 0 22 6
23 26 2 26 37 68 48 57 3 -4 6 -1 6 6 0 8 6 11 16 7 10 -4 14 -1 12 6 -5 14
-65 21 -88 10z"/>
<path d="M8743 5543 c-21 -54 8 -143 47 -143 37 0 33 98 -6 141 -21 24 -33 24
-41 2z"/>
<path d="M825 5519 c-27 -24 -35 -39 -35 -66 0 -33 1 -34 33 -31 32 3 32 3 37
66 3 34 4 62 3 62 -1 0 -18 -14 -38 -31z"/>
<path d="M7225 5519 c-29 -26 -35 -38 -33 -63 3 -27 7 -31 33 -31 30 0 30 1
35 63 3 34 4 62 3 62 -1 0 -18 -14 -38 -31z"/>
<path d="M3390 5520 c-49 -9 -80 -28 -80 -49 0 -52 107 -72 148 -28 12 13 22
30 22 38 0 23 -51 45 -90 39z"/>
<path d="M9748 5509 c-36 -14 -46 -46 -22 -69 46 -44 154 -17 154 39 0 34 -73
51 -132 30z"/>
<path d="M2687 5473 c-24 -24 10 -105 55 -129 33 -19 46 -17 53 6 19 60 -70
161 -108 123z"/>
<path d="M9087 5473 c-26 -26 17 -114 66 -134 38 -16 52 -1 43 47 -12 59 -81
115 -109 87z"/>
<path d="M1190 5443 c-17 -22 -21 -37 -16 -69 5 -37 2 -44 -27 -72 -18 -18
-39 -32 -47 -32 -11 0 -11 -4 3 -17 15 -15 19 -15 44 -2 15 8 34 22 41 32 7 9
26 17 41 17 33 0 48 15 61 59 15 55 -17 111 -64 111 -8 0 -24 -12 -36 -27z"/>
<path d="M5369 5454 c-16 -20 -18 -89 -2 -105 8 -8 17 -7 33 4 12 9 29 13 37
10 39 -15 30 64 -10 92 -27 19 -41 19 -58 -1z"/>
<path d="M7607 5459 c-10 -6 -28 -8 -41 -5 -27 7 -82 -25 -91 -53 -3 -11 1
-41 9 -66 9 -25 16 -54 16 -64 0 -33 31 -34 71 -1 21 16 49 30 62 30 37 0 57
30 57 83 0 69 -37 102 -83 76z"/>
<path d="M11783 5453 c-15 -5 -28 -66 -19 -89 4 -11 10 -13 19 -6 6 5 27 13
45 17 17 3 32 9 32 12 0 3 -9 21 -21 39 -20 33 -30 38 -56 27z"/>
<path d="M1094 5425 c-21 -21 -25 -32 -20 -57 8 -42 11 -43 40 -21 35 26 53
60 40 81 -17 26 -32 25 -60 -3z"/>
<path d="M5855 5429 c-10 -16 24 -99 41 -99 8 0 14 4 14 9 0 5 9 13 20 16 25
8 25 20 -1 56 -21 30 -61 39 -74 18z"/>
<path d="M12262 5431 c-9 -5 -11 -17 -6 -37 11 -48 21 -55 55 -36 33 19 37 42
11 65 -20 19 -40 21 -60 8z"/>
<path d="M3492 5403 c-42 -21 -69 -69 -53 -95 9 -15 7 -26 -11 -58 -20 -35
-21 -42 -8 -50 21 -14 22 -14 68 26 51 43 68 72 53 87 -7 7 -6 20 3 42 9 21
10 37 4 48 -11 21 -15 21 -56 0z"/>
<path d="M9888 5398 c-47 -27 -67 -62 -50 -89 11 -17 9 -25 -9 -50 -23 -32
-20 -59 7 -59 48 0 130 88 105 113 -7 7 -5 21 5 45 11 26 11 38 3 48 -15 18
-17 18 -61 -8z"/>
<path d="M10888 5370 c-4 -38 -12 -58 -33 -80 -25 -26 -26 -30 -11 -36 24 -9
62 10 82 42 23 34 22 94 -2 111 -28 20 -31 17 -36 -37z"/>
<path d="M4506 5399 c-2 -8 -9 -33 -15 -55 -7 -25 -21 -48 -36 -58 -14 -9 -23
-21 -20 -26 23 -37 105 39 105 96 0 34 -26 68 -34 43z"/>
<path d="M726 5392 c-2 -4 -1 -23 3 -42 l8 -35 16 35 c8 19 13 38 11 42 -7 10
-31 10 -38 0z"/>
<path d="M898 5372 c-16 -15 -28 -32 -28 -39 0 -20 51 -53 82 -53 56 0 117 97
72 114 -9 3 -34 6 -57 5 -32 0 -49 -7 -69 -27z"/>
<path d="M7131 5391 c-10 -7 -11 -13 -2 -30 7 -12 9 -27 5 -34 -4 -6 0 -5 9 3
19 17 27 61 12 66 -5 2 -16 0 -24 -5z"/>
<path d="M7295 5375 c-30 -29 -31 -45 -5 -73 32 -34 85 -30 121 9 32 34 38 73
13 83 -9 3 -36 6 -60 6 -34 0 -51 -6 -69 -25z"/>
<path d="M5667 5331 c-19 -21 -38 -49 -42 -60 -7 -23 9 -51 29 -51 18 1 76 94
76 123 0 38 -21 34 -63 -12z"/>
<path d="M12068 5333 c-35 -36 -60 -93 -42 -93 13 0 104 102 104 117 0 24 -25
14 -62 -24z"/>
<path d="M4740 5346 c-29 -35 41 -105 92 -93 70 18 24 107 -55 107 -14 0 -30
-7 -37 -14z"/>
<path d="M11126 5344 c-21 -54 106 -125 143 -80 16 20 -5 64 -40 82 -38 19
-95 18 -103 -2z"/>
<path d="M6049 5307 c-34 -33 -34 -33 -28 -104 6 -86 27 -123 68 -123 25 0 31
5 36 30 4 17 2 52 -5 79 -10 43 -9 51 10 84 12 21 19 44 16 52 -10 27 -60 18
-97 -18z"/>
<path d="M10587 5322 c-10 -11 -17 -35 -17 -59 0 -24 -6 -46 -15 -53 -8 -7
-15 -28 -15 -46 0 -27 6 -36 30 -49 62 -32 106 -11 98 47 -3 18 0 40 5 50 9
13 6 21 -13 36 -18 14 -24 29 -23 56 1 28 -3 36 -16 36 -10 0 -25 -8 -34 -18z"/>
<path d="M12465 5330 c-11 -5 -15 -9 -10 -10 6 0 -3 -11 -18 -24 -27 -22 -28
-25 -21 -89 8 -81 33 -127 69 -127 18 0 28 7 35 24 9 26 3 89 -11 117 -6 12
-2 25 11 42 11 14 20 37 20 51 0 22 -4 26 -27 25 -16 0 -37 -4 -48 -9z"/>
<path d="M4176 5304 c-3 -9 -6 -30 -6 -49 0 -18 -7 -38 -15 -45 -19 -16 -20
-74 -1 -89 8 -7 29 -14 48 -17 43 -7 73 22 65 62 -3 15 0 36 6 46 9 14 8 20
-8 32 -24 18 -35 5 -35 -41 0 -26 -4 -33 -20 -33 -26 0 -35 36 -21 86 6 22 11
45 11 52 0 17 -17 15 -24 -4z"/>
<path d="M710 5266 c0 -17 -39 -48 -51 -40 -5 2 -5 12 -2 22 6 15 5 15 -12 -1
-14 -15 -20 -16 -26 -6 -4 8 -11 10 -15 6 -18 -17 21 -37 73 -37 59 0 93 13
93 35 0 14 -29 35 -49 35 -6 0 -11 -6 -11 -14z"/>
<path d="M7096 5261 c-20 -22 -61 -32 -74 -19 -6 6 -12 6 -16 0 -12 -20 23
-33 85 -30 47 2 65 7 73 21 9 15 7 21 -8 33 -26 19 -39 18 -60 -5z"/>
<path d="M441 5234 c-24 -30 -26 -45 -9 -62 37 -37 102 15 80 63 -15 33 -45
32 -71 -1z"/>
<path d="M6845 5244 c-10 -10 -15 -29 -13 -48 2 -25 8 -32 30 -34 20 -2 31 4
44 23 33 50 -19 101 -61 59z"/>
<path d="M6230 5188 c-24 -39 -26 -100 -5 -118 12 -10 21 -8 50 11 34 24 40
39 36 89 -6 58 -51 67 -81 18z"/>
<path d="M12629 5188 c-25 -34 -29 -89 -9 -113 16 -20 22 -19 63 8 32 20 35
25 31 66 -7 77 -46 95 -85 39z"/>
<path d="M928 5194 c13 -9 26 -13 30 -9 8 8 -17 25 -38 25 -9 0 -6 -6 8 -16z"/>
<path d="M7302 5198 c6 -17 69 -48 98 -48 l25 1 -24 19 c-13 11 -29 20 -37 20
-8 0 -14 5 -14 10 0 6 -12 10 -26 10 -15 0 -24 -5 -22 -12z"/>
<path d="M5119 5177 c-8 -6 -19 -21 -23 -31 -7 -19 -6 -19 13 -2 29 26 87 13
107 -25 16 -32 24 -37 24 -14 0 22 -52 74 -80 80 -14 2 -32 -1 -41 -8z"/>
<path d="M11518 5176 c-22 -16 -23 -30 -3 -22 8 3 15 1 15 -4 0 -5 6 -7 14 -4
8 3 25 0 38 -7 13 -7 29 -12 37 -10 7 1 11 -1 8 -6 -2 -4 -1 -17 4 -28 7 -18
8 -17 8 6 1 19 -10 36 -34 58 -39 34 -60 38 -87 17z"/>
<path d="M1000 5149 c0 -5 5 -7 10 -4 6 3 10 8 10 11 0 2 -4 4 -10 4 -5 0 -10
-5 -10 -11z"/>
<path d="M4575 5153 c-30 -8 -45 -23 -45 -48 0 -31 31 -56 78 -62 37 -5 40 -4
44 23 3 16 8 37 12 46 6 12 0 21 -23 32 -31 17 -33 17 -66 9z"/>
<path d="M10973 5153 c-31 -6 -45 -27 -37 -58 11 -45 98 -71 139 -41 17 12 17
17 5 45 -11 29 -56 63 -77 60 -4 -1 -18 -4 -30 -6z"/>
<path d="M7980 5115 c13 -14 27 -25 32 -25 5 0 -3 11 -18 25 -15 14 -29 25
-32 25 -3 0 5 -11 18 -25z"/>
<path d="M12771 5084 c0 -11 3 -14 6 -6 3 7 2 16 -1 19 -3 4 -6 -2 -5 -13z"/>
<path d="M4409 5033 c-9 -2 -24 -21 -34 -43 -31 -68 5 -129 76 -130 45 0 69
25 69 73 0 58 -61 113 -111 100z"/>
<path d="M10807 5033 c-20 -5 -47 -52 -47 -83 0 -53 38 -89 94 -90 47 0 65 20
66 72 0 60 -61 114 -113 101z"/>
<path d="M2947 5018 c-20 -16 -37 -60 -37 -97 0 -30 27 -61 52 -61 49 0 92
128 53 157 -23 16 -46 17 -68 1z"/>
<path d="M6038 4990 c-51 -50 -51 -86 0 -83 53 2 99 54 88 99 -9 36 -42 30
-88 -16z"/>
<path d="M9341 5006 c-31 -33 -39 -100 -16 -126 25 -28 49 -25 79 11 33 39 37
112 7 129 -30 15 -45 12 -70 -14z"/>
<path d="M12470 5019 c-35 -13 -74 -72 -65 -99 6 -18 12 -20 38 -15 59 13 104
78 76 111 -13 16 -15 16 -49 3z"/>
<path d="M159 4997 c-18 -12 -40 -35 -49 -49 -13 -25 -13 -29 1 -43 27 -27 76
-22 110 11 75 72 24 139 -62 81z"/>
<path d="M6580 5009 c-25 -10 -80 -65 -80 -80 0 -28 15 -39 55 -39 37 0 47 5
74 35 34 39 36 47 21 76 -12 21 -31 23 -70 8z"/>
<path d="M2284 5004 c-17 -7 17 -76 34 -69 8 3 27 5 43 5 40 0 50 27 20 52
-21 17 -71 23 -97 12z"/>
<path d="M8676 5001 c-3 -5 1 -23 10 -40 15 -29 18 -31 57 -25 43 7 67 19 67
35 0 26 -120 53 -134 30z"/>
<path d="M820 4985 c-9 -10 -10 -31 -6 -67 9 -68 22 -90 49 -86 19 3 22 10 25
59 2 44 -1 61 -18 82 -25 31 -33 33 -50 12z"/>
<path d="M1632 4978 c-18 -18 -14 -52 9 -82 l21 -26 20 25 c11 14 26 25 34 25
19 0 18 7 -7 41 -21 30 -56 38 -77 17z"/>
<path d="M7217 4984 c-4 -4 -7 -27 -7 -52 0 -55 27 -104 55 -100 17 3 20 12
23 53 1 28 -4 61 -11 75 -12 25 -46 38 -60 24z"/>
<path d="M8032 4978 c-18 -18 -14 -52 9 -82 l21 -26 20 25 c11 14 26 25 34 25
19 0 18 13 -7 44 -22 27 -57 34 -77 14z"/>
<path d="M1870 4963 c-26 -5 -50 -28 -50 -50 0 -22 62 -53 106 -53 39 0 74 22
74 47 0 32 -74 64 -130 56z"/>
<path d="M3952 4958 c-24 -24 -10 -58 38 -91 30 -21 79 -22 86 -2 22 56 -83
134 -124 93z"/>
<path d="M10350 4955 c-16 -19 -5 -49 31 -80 34 -28 80 -33 99 -10 10 12 8 21
-9 48 -31 51 -95 73 -121 42z"/>
<path d="M8236 4939 c-18 -27 -11 -46 25 -64 60 -32 139 -10 139 37 0 26 -46
48 -99 48 -39 0 -53 -4 -65 -21z"/>
<path d="M2705 4928 c-34 -12 -62 -34 -76 -60 -13 -24 13 -74 49 -92 33 -17
61 -8 91 30 30 38 27 68 -11 99 -30 26 -31 27 -7 23 16 -2 29 -14 39 -35 16
-35 18 -37 39 -24 24 15 3 50 -37 61 -44 12 -48 12 -87 -2z"/>
<path d="M4801 4925 c-17 -22 -20 -72 -5 -94 42 -59 133 27 94 89 -10 17 -77
21 -89 5z"/>
<path d="M9145 4933 c29 -7 45 -23 45 -45 0 -16 -2 -17 -14 -6 -8 7 -12 16
-10 20 2 3 -9 11 -25 16 -23 8 -37 6 -70 -10 -37 -18 -41 -24 -41 -57 0 -41
17 -63 62 -80 22 -8 31 -6 53 10 14 12 32 34 40 50 9 16 21 29 28 29 23 0 37
22 27 40 -11 20 -62 41 -94 39 -20 -1 -20 -2 -1 -6z"/>
<path d="M11225 4931 c-25 -5 -31 -12 -36 -46 -8 -46 10 -75 47 -75 45 0 84
86 52 118 -13 13 -17 13 -63 3z"/>
<path d="M6170 4891 c0 -25 32 -41 99 -49 34 -4 43 -2 39 8 -7 23 -51 48 -95
55 -39 6 -43 5 -43 -14z"/>
<path d="M12567 4903 c-14 -13 -6 -23 33 -43 44 -23 114 -28 108 -7 -9 29
-122 69 -141 50z"/>
<path d="M553 4880 c-76 -38 -96 -129 -27 -122 40 3 106 76 102 111 -4 33 -23
36 -75 11z"/>
<path d="M6948 4885 c-28 -16 -68 -73 -68 -97 0 -46 84 -34 128 18 32 37 27
88 -8 91 -14 2 -37 -4 -52 -12z"/>
<path d="M5293 4859 c-52 -15 -41 -53 17 -64 42 -7 112 6 117 22 3 7 -5 21
-16 32 -23 23 -63 26 -118 10z"/>
<path d="M3841 4839 c-21 -17 -23 -24 -15 -52 7 -22 16 -32 29 -32 16 0 21 8
23 44 4 54 -6 65 -37 40z"/>
<path d="M10243 4841 c-27 -23 -29 -48 -7 -79 24 -34 44 -12 44 49 0 54 -4 57
-37 30z"/>
<path d="M11663 4844 c-11 -30 23 -49 88 -48 73 1 108 24 37 24 -30 0 -54 7
-71 20 -30 24 -46 25 -54 4z"/>
<path d="M3348 4837 c-34 -13 -52 -51 -38 -77 13 -23 61 -50 90 -50 25 0 66
25 74 46 10 27 -13 63 -50 79 -41 17 -39 17 -76 2z"/>
<path d="M5592 4834 c-25 -18 -28 -50 -7 -81 11 -15 28 -22 62 -25 27 -3 56
-8 66 -12 14 -7 17 -3 17 22 0 35 -30 76 -70 97 -36 19 -40 19 -68 -1z"/>
<path d="M9749 4839 c-33 -12 -53 -53 -39 -79 12 -22 60 -50 85 -50 27 0 73
29 80 50 9 28 -12 60 -50 76 -39 16 -40 16 -76 3z"/>
<path d="M11992 4834 c-25 -18 -28 -50 -7 -81 11 -15 28 -22 62 -25 27 -3 56
-8 66 -12 14 -7 17 -3 17 22 0 35 -30 76 -70 97 -36 19 -40 19 -68 -1z"/>
<path d="M138 4828 c-41 -34 -25 -71 37 -82 44 -9 89 11 93 41 6 40 -92 71
-130 41z"/>
<path d="M1632 4828 c-20 -20 -15 -92 9 -122 28 -36 76 -36 89 0 14 35 12 54
-4 54 -22 0 -66 40 -66 61 0 22 -11 24 -28 7z"/>
<path d="M6538 4829 c-22 -12 -24 -52 -4 -68 40 -34 128 -16 134 26 6 39 -85
69 -130 42z"/>
<path d="M8032 4828 c-27 -27 -7 -113 32 -140 20 -14 55 -8 66 11 17 32 12 61
-9 61 -21 0 -61 44 -61 66 0 17 -12 18 -28 2z"/>
<path d="M1320 4790 c-21 -21 -29 -100 -10 -100 6 0 10 5 10 10 0 16 46 12 60
-5 7 -8 10 -24 7 -35 -7 -26 4 -25 37 1 20 16 26 29 26 60 0 75 -81 118 -130
69z"/>
<path d="M7734 4802 c-34 -22 -48 -112 -17 -108 9 2 19 8 21 14 2 7 12 12 23
12 18 0 24 -18 21 -62 -2 -23 9 -23 42 3 37 29 36 85 -2 122 -27 26 -65 34
-88 19z"/>
<path d="M1807 4733 c-14 -13 -6 -70 11 -86 34 -31 72 -14 72 31 0 38 -61 78
-83 55z"/>
<path d="M8207 4724 c-27 -27 15 -101 50 -90 27 9 34 27 24 63 -6 22 -14 29
-37 31 -16 2 -33 0 -37 -4z"/>
<path d="M4926 4689 c-14 -17 -26 -39 -26 -49 0 -22 37 -60 57 -60 23 0 70 28
77 45 31 81 -52 131 -108 64z"/>
<path d="M11326 4689 c-29 -35 -33 -61 -11 -83 46 -45 124 -11 124 54 0 65
-68 82 -113 29z"/>
<path d="M6083 4703 c-8 -3 -13 -21 -13 -43 0 -30 6 -44 31 -64 17 -14 41 -26
54 -26 32 0 67 38 63 69 -2 20 -11 27 -41 33 -20 4 -47 14 -60 22 -12 7 -28
12 -34 9z"/>
<path d="M12470 4685 c-13 -34 3 -71 41 -94 38 -23 78 -15 98 21 19 34 8 58
-26 58 -15 0 -41 9 -58 20 -39 26 -44 25 -55 -5z"/>
<path d="M322 4642 c-64 -41 -72 -102 -12 -102 72 0 148 85 105 117 -27 19
-45 16 -93 -15z"/>
<path d="M6727 4643 c-47 -26 -65 -56 -53 -88 15 -40 139 9 152 61 13 50 -34
63 -99 27z"/>
<path d="M707 4634 c-3 -3 -3 -12 -1 -19 3 -7 -4 -16 -15 -20 -25 -8 -26 -23
-6 -52 39 -56 137 -39 143 24 4 44 -26 73 -76 73 -21 0 -41 -3 -45 -6z"/>
<path d="M7100 4616 c-5 -13 -15 -26 -22 -29 -20 -7 12 -59 47 -76 26 -12 33
-12 65 5 71 38 44 124 -40 124 -34 0 -42 -4 -50 -24z"/>
<path d="M4282 4555 c9 -28 14 -33 29 -24 40 21 33 59 -11 59 -27 0 -28 -1
-18 -35z"/>
<path d="M10670 4585 c0 -15 25 -55 35 -55 19 0 38 28 31 45 -5 13 -66 23 -66
10z"/>
<path d="M2175 4524 c-28 -30 -32 -66 -10 -84 40 -33 139 54 106 94 -21 25
-68 20 -96 -10z"/>
<path d="M8576 4521 c-30 -31 -32 -67 -5 -84 42 -26 130 60 100 97 -21 25 -64
19 -95 -13z"/>
<path d="M1089 4429 c-44 -44 4 -139 71 -139 60 0 61 72 3 132 -32 34 -46 35
-74 7z"/>
<path d="M2655 4417 c-19 -45 -19 -73 -2 -80 23 -9 35 7 38 50 5 61 -16 78
-36 30z"/>
<path d="M7490 4428 c-25 -27 -25 -54 -1 -95 22 -35 50 -48 86 -39 46 12 40
74 -13 129 -31 33 -45 34 -72 5z"/>
<path d="M9055 4414 c-24 -59 -19 -86 14 -77 30 8 39 113 10 113 -5 0 -16 -16
-24 -36z"/>
<path d="M857 4423 c-35 -39 -34 -123 2 -123 10 0 26 9 35 19 14 15 15 24 7
40 -6 11 -11 33 -11 50 0 35 -10 39 -33 14z"/>
<path d="M4286 4428 c-33 -19 -66 -62 -62 -81 3 -14 1 -16 -9 -7 -7 6 -41 13
-76 16 -49 4 -69 2 -84 -9 -19 -15 -19 -17 -4 -32 9 -10 42 -23 72 -30 46 -11
60 -11 82 1 24 12 30 12 52 -6 34 -27 59 -25 100 6 44 33 58 68 42 106 -19 46
-69 62 -113 36z"/>
<path d="M7263 4425 c-24 -17 -39 -71 -28 -104 8 -26 36 -27 59 -2 15 16 16
23 5 43 -7 13 -12 35 -11 51 3 32 3 32 -25 12z"/>
<path d="M10666 4409 c-19 -16 -38 -39 -41 -49 -5 -16 -11 -17 -38 -9 -47 13
-111 11 -133 -5 -17 -14 -18 -16 -3 -31 9 -9 42 -22 75 -30 51 -12 62 -12 82
1 20 13 25 13 50 -5 15 -11 36 -19 47 -16 11 2 23 4 27 4 3 1 20 13 37 27 25
21 31 33 31 65 0 79 -70 104 -134 48z"/>
<path d="M4913 4360 c-8 -22 -20 -32 -42 -36 -17 -4 -31 -12 -31 -19 0 -17 33
-45 54 -45 26 0 77 30 70 41 -3 5 0 16 6 24 10 12 9 20 -4 40 -22 33 -39 32
-53 -5z"/>
<path d="M11313 4360 c-8 -22 -20 -32 -42 -36 -17 -4 -31 -10 -31 -15 0 -14
39 -49 55 -49 27 0 65 23 65 40 0 9 4 20 10 26 12 12 -10 58 -30 62 -9 1 -20
-10 -27 -28z"/>
<path d="M550 4365 c7 -8 16 -15 21 -15 5 0 9 7 9 15 0 9 -9 15 -21 15 -18 0
-19 -2 -9 -15z"/>
<path d="M6952 4364 c9 -9 21 -13 27 -9 16 10 3 25 -22 25 -20 0 -20 -1 -5
-16z"/>
<path d="M172 4324 c-33 -23 -31 -86 4 -113 30 -23 64 -27 82 -9 7 7 12 31 12
54 0 34 -5 47 -26 63 -32 25 -43 26 -72 5z"/>
<path d="M6196 4319 c-21 -17 -26 -29 -26 -65 0 -29 6 -50 18 -62 18 -18 18
-19 -3 -38 -43 -38 -40 -130 4 -154 49 -26 81 72 46 140 -15 28 -14 30 4 30
11 0 23 5 26 10 3 6 14 10 24 10 39 0 42 91 5 125 -33 30 -63 32 -98 4z"/>
<path d="M6572 4324 c-33 -23 -31 -86 4 -113 30 -23 64 -27 82 -9 7 7 12 31
12 54 0 34 -5 47 -26 63 -32 25 -43 26 -72 5z"/>
<path d="M12607 4329 c-11 -6 -25 -27 -33 -46 -14 -32 -13 -38 6 -75 21 -40
21 -41 2 -54 -23 -16 -36 -71 -26 -109 7 -30 37 -49 63 -40 25 8 35 89 15 127
-8 15 -14 29 -14 31 0 3 20 11 45 18 l45 13 0 58 c0 54 -2 59 -30 73 -34 18
-48 18 -73 4z"/>
<path d="M5756 4291 c-25 -28 -25 -87 0 -106 10 -8 26 -15 34 -15 51 -1 89 83
55 120 -23 25 -67 26 -89 1z"/>
<path d="M12156 4288 c-28 -45 -29 -68 -5 -94 12 -13 31 -24 41 -24 29 0 68
45 68 79 0 55 -76 83 -104 39z"/>
<path d="M4457 4282 c-48 -53 29 -168 79 -117 22 21 13 79 -17 111 -27 29 -41
30 -62 6z"/>
<path d="M10854 4275 c-29 -44 2 -115 53 -121 32 -3 43 9 43 50 0 32 -43 96
-65 96 -8 0 -22 -11 -31 -25z"/>
<path d="M1303 4284 c-19 -8 -16 -20 9 -44 25 -23 103 -28 131 -7 15 11 16 15
4 31 -11 15 -29 20 -73 23 -33 1 -65 0 -71 -3z"/>
<path d="M7703 4283 c-18 -7 -16 -20 7 -43 35 -35 158 -22 144 15 -10 25 -112
44 -151 28z"/>
<path d="M2207 4253 c-27 -27 19 -93 65 -93 44 0 45 42 2 84 -16 16 -55 22
-67 9z"/>
<path d="M8612 4248 c-16 -16 -15 -34 4 -63 12 -19 25 -25 50 -25 39 0 51 18
35 48 -26 49 -64 65 -89 40z"/>
<path d="M1969 4212 c-61 -62 -62 -122 -1 -122 34 0 92 62 92 100 0 28 -22 60
-42 60 -6 0 -28 -17 -49 -38z"/>
<path d="M3532 4224 c-30 -21 -29 -65 4 -103 28 -34 40 -37 79 -19 20 9 25 18
25 49 0 33 -5 42 -37 64 -44 30 -42 29 -71 9z"/>
<path d="M8373 4218 c-37 -41 -55 -86 -43 -108 36 -67 152 40 124 114 -9 24
-57 20 -81 -6z"/>
<path d="M9926 4218 c-23 -32 -20 -62 10 -97 28 -34 40 -37 79 -19 23 10 26
17 23 52 -2 33 -9 44 -37 63 -42 29 -56 29 -75 1z"/>
<path d="M5147 4203 c-10 -20 17 -95 44 -124 40 -43 54 -28 35 35 -19 62 -65
114 -79 89z"/>
<path d="M11546 4202 c-8 -14 14 -82 37 -114 47 -63 65 -7 23 72 -23 43 -48
61 -60 42z"/>
<path d="M3894 4161 c-31 -19 -51 -62 -38 -82 13 -22 54 -29 89 -15 74 31 73
116 -2 116 -10 0 -32 -9 -49 -19z"/>
<path d="M10294 4161 c-51 -31 -54 -95 -4 -101 38 -5 63 2 85 25 63 62 -2 124
-81 76z"/>
<path d="M92 4112 c-18 -12 -33 -72 -26 -109 7 -38 37 -45 54 -14 24 46 3 142
-28 123z"/>
<path d="M6489 4110 c-19 -11 -33 -85 -23 -124 8 -34 37 -34 52 -1 27 59 6
145 -29 125z"/>
<path d="M5510 4015 c-14 -7 -33 -16 -42 -19 -22 -7 -24 -53 -3 -102 19 -45
47 -43 85 6 39 49 45 85 20 110 -24 24 -27 24 -60 5z"/>
<path d="M11910 4016 c-6 -8 -21 -16 -33 -18 -49 -7 -24 -138 26 -138 30 0 77
72 77 117 0 45 -44 70 -70 39z"/>
<path d="M1893 3970 c-53 -32 -38 -80 26 -82 64 -2 110 66 62 92 -29 15 -52
12 -88 -10z"/>
<path d="M8293 3969 c-18 -12 -33 -29 -33 -39 0 -56 110 -56 140 0 8 15 6 24
-10 40 -25 25 -56 25 -97 -1z"/>
<path d="M3760 3943 c-25 -33 -26 -67 0 -93 26 -26 34 -25 54 5 41 62 -9 145
-54 88z"/>
<path d="M10162 3948 c-7 -7 -12 -31 -12 -55 0 -33 5 -45 22 -54 18 -10 24 -8
40 11 43 54 -3 145 -50 98z"/>
<path d="M5635 3854 c-43 -22 -75 -55 -75 -76 0 -21 4 -22 29 -7 13 9 26 9 49
1 28 -10 32 -8 49 16 27 40 32 56 21 70 -14 16 -37 15 -73 -4z"/>
<path d="M12002 3839 c-28 -19 -52 -62 -40 -74 2 -3 18 -1 35 4 18 5 37 5 48
-1 14 -8 22 -5 41 18 13 16 23 39 24 52 0 19 -5 22 -37 22 -21 0 -53 -10 -71
-21z"/>
<path d="M239 3815 c-76 -41 -16 -110 63 -73 39 19 50 41 32 67 -18 24 -56 27
-95 6z"/>
<path d="M6332 3818 c-74 -25 -80 -108 -9 -108 48 0 127 69 111 97 -13 21 -56
26 -102 11z"/>
<path d="M6633 3810 c-38 -23 -43 -54 -12 -71 45 -23 129 10 129 52 0 22 -6
25 -50 33 -26 5 -44 1 -67 -14z"/>
<path d="M4122 3806 c-45 -24 -77 -95 -51 -111 36 -23 118 60 104 104 -7 24
-20 26 -53 7z"/>
<path d="M10506 3790 c-57 -50 -58 -110 -2 -96 32 8 80 79 71 107 -9 27 -29
24 -69 -11z"/>
<path d="M12722 3813 c-28 -5 -55 -44 -46 -67 12 -32 40 -38 78 -15 37 22 40
28 30 67 -6 22 -15 24 -62 15z"/>
<path d="M1977 3763 c-16 -16 -5 -53 23 -76 37 -31 37 -41 5 -79 -59 -70 18
-107 91 -45 19 17 29 37 35 77 7 48 6 57 -12 77 -38 40 -121 67 -142 46z"/>
<path d="M8377 3763 c-16 -16 -5 -53 23 -76 36 -31 37 -36 5 -83 -19 -28 -22
-40 -14 -55 12 -23 38 -24 83 -3 42 20 54 44 58 108 3 48 2 51 -40 83 -41 31
-97 44 -115 26z"/>
<path d="M2202 3743 c-28 -5 -51 -48 -34 -65 14 -14 80 -14 115 0 50 21 24 74
-35 71 -13 -1 -33 -4 -46 -6z"/>
<path d="M8617 3742 c-16 -2 -31 -10 -34 -18 -3 -8 -11 -14 -19 -14 -23 0 -16
-27 9 -34 33 -9 83 -7 112 4 19 7 26 16 23 32 -3 24 -40 36 -91 30z"/>
<path d="M1337 3724 c-12 -12 -8 -63 8 -93 8 -16 28 -34 45 -41 27 -11 34 -11
47 3 19 19 13 50 -20 98 -22 32 -63 50 -80 33z"/>
<path d="M7736 3709 c-23 -34 6 -99 54 -119 27 -11 34 -11 47 2 20 21 10 69
-24 108 -29 35 -56 38 -77 9z"/>
<path d="M6313 3688 c-24 -32 -23 -39 20 -82 42 -43 58 -49 85 -33 18 12 15
62 -5 79 -15 12 -80 48 -88 48 -2 0 -7 -6 -12 -12z"/>
<path d="M4031 3666 c-19 -23 40 -136 71 -136 19 0 6 60 -23 103 -17 26 -32
47 -34 47 -1 0 -8 -6 -14 -14z"/>
<path d="M10430 3665 c-9 -11 -6 -25 17 -67 31 -58 63 -76 63 -35 0 19 -54
117 -65 117 -1 0 -8 -7 -15 -15z"/>
<path d="M12697 3645 c-4 -8 -2 -17 3 -20 6 -4 10 3 10 14 0 25 -6 27 -13 6z"/>
<path d="M6524 3584 c-8 -30 18 -91 41 -100 24 -10 45 15 45 52 0 63 -72 103
-86 48z"/>
<path d="M12730 3600 c0 -5 5 -10 11 -10 5 0 7 5 4 10 -3 6 -8 10 -11 10 -2 0
-4 -4 -4 -10z"/>
<path d="M6310 3596 c0 -2 8 -10 18 -17 15 -13 16 -12 3 4 -13 16 -21 21 -21
13z"/>
<path d="M2935 3530 c-13 -41 46 -100 101 -100 28 0 34 4 34 20 0 65 -118 135
-135 80z"/>
<path d="M9340 3535 c-28 -33 39 -105 98 -105 27 0 32 4 32 23 -1 27 -20 54
-57 79 -34 22 -56 23 -73 3z"/>
<path d="M3091 3372 c-16 -31 -10 -100 11 -127 24 -31 35 -31 60 -2 25 28 19
89 -13 123 -27 29 -45 30 -58 6z"/>
<path d="M9489 3363 c-21 -54 8 -143 47 -143 20 0 44 41 44 76 0 35 -42 94
-66 94 -8 0 -19 -12 -25 -27z"/>
<path d="M1120 3240 c-27 -27 -25 -56 4 -85 18 -18 33 -23 59 -21 47 4 57 12
57 46 0 32 -20 57 -57 71 -34 13 -40 12 -63 -11z"/>
<path d="M7540 3252 c-41 -15 -52 -68 -21 -96 22 -20 89 -28 109 -13 46 35
-31 131 -88 109z"/>
<path d="M1700 3193 c1 -32 40 -115 58 -121 19 -6 13 48 -11 97 -27 54 -47 64
-47 24z"/>
<path d="M8100 3193 c1 -32 40 -115 58 -121 20 -6 14 50 -10 98 -28 53 -48 63
-48 23z"/>
<path d="M6047 3203 c-4 -3 -7 -13 -7 -21 0 -12 2 -12 17 -1 15 13 15 12 4 -9
-10 -19 -9 -27 9 -52 23 -33 38 -38 46 -16 10 27 -52 116 -69 99z"/>
<path d="M12450 3183 c0 -38 42 -94 58 -78 9 9 -31 85 -45 85 -7 0 -13 -3 -13
-7z"/>
<path d="M5194 3171 c4 -6 1 -9 -7 -5 -17 6 -36 -15 -46 -53 -6 -22 -15 -29
-46 -35 -48 -10 -65 -24 -65 -52 0 -23 32 -59 60 -68 21 -7 67 18 74 40 4 11
17 24 31 30 48 22 57 142 11 150 -11 3 -16 0 -12 -7z"/>
<path d="M11572 3165 c-12 -9 -25 -30 -30 -47 -7 -27 -15 -33 -51 -42 -24 -6
-49 -18 -54 -27 -17 -28 0 -65 38 -84 33 -15 38 -15 60 -1 14 9 27 27 31 40 4
16 11 23 20 19 8 -3 17 3 21 13 3 11 10 21 14 24 14 9 17 83 5 102 -13 22 -25
23 -54 3z"/>
<path d="M3470 3022 c0 -16 36 -56 83 -91 30 -23 21 14 -14 54 -42 48 -69 62
-69 37z"/>
<path d="M9870 3025 c0 -19 71 -95 89 -95 27 0 -9 54 -59 90 -27 19 -30 19
-30 5z"/>
<path d="M865 2999 c-4 -6 -4 -26 -1 -44 10 -52 81 -100 111 -75 25 21 17 50
-24 91 -38 38 -73 50 -86 28z"/>
<path d="M7264 2986 c-9 -37 16 -79 60 -99 71 -34 91 24 31 86 -43 44 -81 50
-91 13z"/>
<path d="M4182 2888 c-26 -26 -14 -55 33 -77 55 -26 67 -26 95 -3 l21 17 -21
27 c-11 15 -38 32 -58 38 -47 13 -55 13 -70 -2z"/>
<path d="M10582 2888 c-26 -26 -14 -55 33 -77 47 -22 85 -21 105 4 16 19 -22
59 -68 73 -49 15 -55 15 -70 0z"/>
<path d="M4846 2800 c-29 -35 -33 -62 -12 -79 29 -24 81 32 74 80 -5 35 -32
34 -62 -1z"/>
<path d="M11245 2804 c-28 -30 -34 -81 -11 -90 38 -15 95 60 75 98 -14 25 -36
22 -64 -8z"/>
<path d="M2506 2807 c-19 -14 -19 -16 -3 -40 22 -34 87 -55 122 -39 31 14 32
32 1 61 -30 28 -94 38 -120 18z"/>
<path d="M8906 2807 c-19 -14 -19 -16 -3 -41 10 -14 30 -28 45 -32 15 -3 33
-8 40 -10 25 -7 62 8 62 25 0 48 -103 89 -144 58z"/>
<path d="M720 2760 c-14 -25 -5 -55 27 -97 29 -39 68 -45 76 -11 11 41 -42
128 -78 128 -8 0 -19 -9 -25 -20z"/>
<path d="M7127 2773 c-15 -14 -6 -72 16 -104 27 -40 72 -52 81 -21 7 20 -17
83 -43 115 -14 17 -42 23 -54 10z"/>
<path d="M1720 2398 c-26 -43 -27 -114 -2 -120 44 -10 72 25 72 92 0 65 -38
80 -70 28z"/>
<path d="M8130 2410 c-23 -23 -33 -56 -28 -96 2 -24 8 -29 33 -32 24 -2 32 3
43 25 23 50 11 123 -20 123 -4 0 -17 -9 -28 -20z"/>
<path d="M611 2387 c-18 -18 -13 -36 15 -62 50 -46 120 -23 96 30 -7 14 -15
25 -19 25 -5 0 -25 4 -45 9 -24 6 -40 5 -47 -2z"/>
<path d="M7017 2388 c-56 -31 36 -109 92 -78 23 12 28 42 9 58 -23 18 -84 30
-101 20z"/>
</g>
</svg>
